<svg width="775" height="492" viewBox="0 0 775 492" fill="none" xmlns="http://www.w3.org/2000/svg">
<path d="M532.52 0C528.595 0 525 3.14453 525 7.51953V144.922L493.848 126.758C491.898 125.608 489.7 125.049 487.5 125.049C485.3 125.049 483.102 125.608 481.152 126.758L406.299 170.41C402.399 172.66 400 176.824 400 181.299V268.701C400 273.201 402.399 277.34 406.299 279.59L481.152 323.242C483.102 324.392 485.3 324.951 487.5 324.951C489.7 324.951 491.898 324.392 493.848 323.242L568.701 279.59C572.601 277.34 575 273.176 575 268.701V225V181.299V30.7617C575 26.3117 572.624 22.2207 568.799 19.9707L536.23 1.02539C535.005 0.325391 533.77 0 532.52 0ZM287.5 125.049C285.306 125.049 283.115 125.62 281.152 126.758L206.299 170.41C202.399 172.66 200 176.824 200 181.299V268.701C200 273.201 202.399 277.34 206.299 279.59L281.152 323.242C285.077 325.517 289.923 325.517 293.848 323.242L368.701 279.59C372.601 277.34 375 273.176 375 268.701V181.299C375 176.799 372.601 172.66 368.701 170.41L293.848 126.758C291.885 125.62 289.694 125.049 287.5 125.049ZM687.5 125.049C685.3 125.049 683.102 125.608 681.152 126.758L606.299 170.41C602.399 172.66 600 176.824 600 181.299V268.701C600 273.201 602.399 277.34 606.299 279.59L678.906 323.486C682.806 325.861 687.7 325.884 691.65 323.584L727.344 302.832C731.044 300.707 731.069 295.339 727.344 293.164L650 247.607V202.734L687.5 180.908L725 202.734V233.984C725 238.159 728.509 238.802 730.859 237.402C740.309 231.852 768.799 215.332 768.799 215.332C772.624 213.107 775 208.991 775 204.541V181.299C775 176.799 772.601 172.66 768.701 170.41L693.848 126.758C691.873 125.608 689.7 125.049 687.5 125.049ZM87.5 125.098C85.3 125.098 83.1023 125.657 81.1523 126.807L6.29883 170.41C2.39883 172.685 0 176.848 0 181.348V292.92C0 298.37 5.8957 301.748 10.5957 299.023L43.7988 279.688C47.6238 277.438 50 273.346 50 268.896V202.832L87.5 180.957L125 202.832V268.896C125 273.346 127.376 277.438 131.201 279.688L164.404 299.023C169.104 301.773 175 298.37 175 292.92V181.348C175 176.848 172.601 172.685 168.701 170.41L93.8477 126.807C91.8977 125.657 89.7 125.098 87.5 125.098ZM487.5 180.908L525 202.783V225V247.217L487.5 269.092L450 247.217V202.783L487.5 180.908ZM687.5 200.098L666.064 212.598V237.549L687.5 250L708.936 237.549V212.598L687.5 200.098ZM385.156 299.951C382.584 299.951 379.984 300.58 377.734 301.855L307.422 342.48C302.797 345.03 300 350.048 300 355.273V436.426C300 441.651 302.922 446.569 307.422 449.219L325.928 459.766C334.803 464.141 338.065 464.16 342.09 464.16C355.34 464.16 362.891 456.236 362.891 442.236V362.061C362.891 360.836 361.94 359.961 360.84 359.961H351.953C350.728 359.961 349.854 360.961 349.854 362.061V442.236C349.854 448.311 343.434 454.541 332.959 449.316L313.721 438.232C313.096 437.857 312.646 437.102 312.646 436.377V355.225C312.646 354.5 312.996 353.646 313.721 353.271L384.033 312.744C384.783 312.369 385.63 312.369 386.23 312.744L456.592 353.271C457.317 353.646 457.666 354.375 457.666 355.225V436.377C457.666 437.227 457.192 437.955 456.592 438.33L386.23 479.004C385.605 479.379 384.633 479.379 384.033 479.004L366.064 468.311C365.589 468.061 364.83 467.914 364.355 468.164C359.38 471.089 358.385 471.472 353.76 473.047C352.535 473.422 350.87 474.173 354.395 476.123L377.734 489.99C380.059 491.215 382.606 491.943 385.156 491.943C387.831 491.943 390.43 491.218 392.48 489.893L462.793 449.219C467.418 446.669 470.215 441.651 470.215 436.426V355.273C470.215 350.048 467.293 345.155 462.793 342.48L392.48 301.855C390.293 300.58 387.728 299.951 385.156 299.951ZM494.824 337.402C487.649 337.402 481.348 343.204 481.348 350.879C481.348 358.304 487.399 364.404 494.824 364.404C502.249 364.404 508.301 358.304 508.301 350.879C508.301 343.204 502.124 337.277 494.824 337.402ZM494.678 339.551C501.028 339.551 506.152 344.554 506.152 350.879C506.152 357.079 501.003 362.204 494.678 362.354C488.453 362.354 483.398 357.204 483.398 350.879C483.398 344.554 488.478 339.551 494.678 339.551ZM489.746 343.213V358.398H492.627V352.344H495.312C496.413 352.344 496.674 352.812 496.924 353.662C496.924 353.787 497.385 357.722 497.51 358.447H500.635C500.285 357.722 500.027 355.645 499.902 354.395C499.552 352.445 499.438 351.102 497.363 350.977C498.463 350.602 500.293 350.017 500.293 347.217C500.293 343.192 496.796 343.213 494.971 343.213H489.746ZM492.627 345.654H495.068C495.818 345.654 497.266 345.63 497.266 347.705C497.266 348.555 496.897 349.927 494.922 349.902H492.627V345.654ZM404.004 358.057C383.929 358.057 372.021 366.613 372.021 380.713C372.021 396.163 383.949 400.296 403.174 402.246C426.174 404.546 427.979 407.854 427.979 412.354C427.979 420.254 421.637 423.535 406.787 423.535C388.162 423.535 384.065 418.918 382.715 409.668C382.59 408.693 381.715 407.959 380.615 407.959H371.484C370.384 407.959 369.434 408.834 369.434 410.059C369.434 421.859 375.866 435.986 406.641 435.986C429.216 435.961 441.992 427.215 441.992 411.865C441.992 396.665 431.757 392.622 410.107 389.697C388.207 386.772 386.035 385.301 386.035 380.176C386.035 375.926 387.829 370.361 404.004 370.361C418.479 370.361 423.874 373.527 426.074 383.252C426.324 384.227 427.004 384.814 427.979 384.814H437.109C437.709 384.814 438.224 384.579 438.574 384.229C438.949 383.754 439.188 383.266 439.062 382.666C437.612 365.866 426.529 358.057 404.004 358.057Z" fill="black"/>
</svg>
